<?xml version="1.0" encoding="UTF-8" standalone="no"?>
<svg
   xmlns:dc="http://purl.org/dc/elements/1.1/"
   xmlns:cc="http://creativecommons.org/ns#"
   xmlns:rdf="http://www.w3.org/1999/02/22-rdf-syntax-ns#"
   xmlns:svg="http://www.w3.org/2000/svg"
   xmlns="http://www.w3.org/2000/svg"
   xmlns:xlink="http://www.w3.org/1999/xlink"
   xmlns:sodipodi="http://sodipodi.sourceforge.net/DTD/sodipodi-0.dtd"
   xmlns:inkscape="http://www.inkscape.org/namespaces/inkscape"
   id="Svg"
   width="128"
   height="128"
   version="1.1"
   sodipodi:docname="forest_mixed.svg"
   inkscape:export-filename="/Users/hannah.spitzer/projects/personal/render_osm/Maperitive/Textures/forest_mixed.png"
   inkscape:export-xdpi="96"
   inkscape:export-ydpi="96"
   inkscape:version="0.92.2 5c3e80d, 2017-08-06">
  <metadata
     id="metadata209">
    <rdf:RDF>
      <cc:Work
         rdf:about="">
        <dc:format>image/svg+xml</dc:format>
        <dc:type
           rdf:resource="http://purl.org/dc/dcmitype/StillImage" />
      </cc:Work>
    </rdf:RDF>
  </metadata>
  <sodipodi:namedview
     pagecolor="#ffffff"
     bordercolor="#666666"
     borderopacity="1"
     objecttolerance="10"
     gridtolerance="10"
     guidetolerance="10"
     inkscape:pageopacity="0"
     inkscape:pageshadow="2"
     inkscape:window-width="1219"
     inkscape:window-height="706"
     id="namedview207"
     showgrid="false"
     inkscape:zoom="1.84375"
     inkscape:cx="64"
     inkscape:cy="64"
     inkscape:window-x="0"
     inkscape:window-y="0"
     inkscape:window-maximized="0"
     inkscape:current-layer="Svg" />
  <defs
     id="defs23">
    <clipPath
       id="clipPath">
      <rect
         x="0"
         y="0"
         width="128"
         height="128"
         id="rect2" />
    </clipPath>
    <g
       fill="#88a77c"
       transform="matrix(1,0,0,1,0,0)"
       id="gSkqa02mxc31b"
       style="">
      <g
         id="g11">
        <path
           d="M 2,0 0,6 0,7 2,7 2,10 3,10 3,7 5,7 5,6 3,0 z M 2.5,1 4,6 1,6 z"
           id="path5" />
        <path
           d="m 7,5 1,0 0,5 -1,0 z"
           id="path7" />
        <path
           d="m 7.5,0 a 2.5,3 0 0 1 0,6 l 0,-1 a 1.5,2 0 0 0 0,-4 1.5,2 0 1 0 0,4 l 0,1 a 2.5,3 0 1 1 0,-6 z"
           id="path9" />
      </g>
    </g>
    <g
       fill="#88a77c"
       transform="matrix(1,0,0,1,0,0)"
       id="gSkqa02mxc31c"
       style="">
      <g
         id="g20">
        <path
           d="m 2,5 1,0 0,5 -1,0 z"
           id="path14" />
        <path
           d="m 2.5,0 a 2.5,3 0 0 1 0,6 l 0,-1 a 1.5,2 0 0 0 0,-4 1.5,2 0 1 0 0,4 l 0,1 a 2.5,3 0 1 1 0,-6 z"
           id="path16" />
        <path
           d="M 7,0 5,6 5,7 7,7 7,10 8,10 8,7 10,7 10,6 8,0 z M 7.5,1 9,6 6,6 z"
           id="path18" />
      </g>
    </g>
  </defs>
  <rect
     style="opacity:1;fill:#8dc56c;fill-opacity:1;stroke:none;stroke-opacity:1"
     id="rect1016"
     width="138.84746"
     height="139.93221"
     x="-2.1694915"
     y="-4.8813558" />
  <g
     id="Pattern"
     clip-path="url(#clipPath)">
    <use
       xlink:href="#gSkqa02mxc31b"
       x="26.856302"
       y="121.63139"
       id="use25"
       width="100%"
       height="100%" />
    <use
       xlink:href="#gSkqa02mxc31b"
       x="154.85631"
       y="121.63139"
       id="use27"
       width="100%"
       height="100%" />
    <use
       xlink:href="#gSkqa02mxc31b"
       x="154.85631"
       y="-6.3686075"
       id="use29"
       width="100%"
       height="100%" />
    <use
       xlink:href="#gSkqa02mxc31b"
       x="26.856302"
       y="-6.3686075"
       id="use31"
       width="100%"
       height="100%" />
    <use
       xlink:href="#gSkqa02mxc31b"
       x="154.85631"
       y="-6.3686075"
       id="use33"
       width="100%"
       height="100%" />
    <use
       xlink:href="#gSkqa02mxc31b"
       x="112.59981"
       y="16.402687"
       id="use35"
       width="100%"
       height="100%" />
    <use
       xlink:href="#gSkqa02mxc31b"
       x="-15.40019"
       y="16.402687"
       id="use37"
       width="100%"
       height="100%" />
    <use
       xlink:href="#gSkqa02mxc31b"
       x="-15.40019"
       y="144.40268"
       id="use39"
       width="100%"
       height="100%" />
    <use
       xlink:href="#gSkqa02mxc31b"
       x="112.59981"
       y="144.40268"
       id="use41"
       width="100%"
       height="100%" />
    <use
       xlink:href="#gSkqa02mxc31b"
       x="-15.40019"
       y="144.40268"
       id="use43"
       width="100%"
       height="100%" />
    <use
       xlink:href="#gSkqa02mxc31c"
       x="71.180779"
       y="95.75341"
       id="use45"
       width="100%"
       height="100%" />
    <use
       xlink:href="#gSkqa02mxc31b"
       x="37.109322"
       y="40.182644"
       id="use47"
       width="100%"
       height="100%" />
    <use
       xlink:href="#gSkqa02mxc31c"
       x="77.979118"
       y="57.576118"
       id="use49"
       width="100%"
       height="100%" />
    <use
       xlink:href="#gSkqa02mxc31b"
       x="19.021637"
       y="94.806526"
       id="use51"
       width="100%"
       height="100%" />
    <use
       xlink:href="#gSkqa02mxc31b"
       x="147.02164"
       y="94.806526"
       id="use53"
       width="100%"
       height="100%" />
    <use
       xlink:href="#gSkqa02mxc31b"
       x="92.514641"
       y="75.597763"
       id="use55"
       width="100%"
       height="100%" />
    <use
       xlink:href="#gSkqa02mxc31b"
       x="45.215939"
       y="9.2386684"
       id="use57"
       width="100%"
       height="100%" />
    <use
       xlink:href="#gSkqa02mxc31b"
       x="45.215939"
       y="137.23866"
       id="use59"
       width="100%"
       height="100%" />
    <use
       xlink:href="#gSkqa02mxc31b"
       x="50.141369"
       y="119.89944"
       id="use61"
       width="100%"
       height="100%" />
    <use
       xlink:href="#gSkqa02mxc31b"
       x="50.141369"
       y="-8.1005535"
       id="use63"
       width="100%"
       height="100%" />
    <use
       xlink:href="#gSkqa02mxc31b"
       x="50.620682"
       y="100.42333"
       id="use65"
       width="100%"
       height="100%" />
    <use
       xlink:href="#gSkqa02mxc31b"
       x="50.620682"
       y="-27.576664"
       id="use67"
       width="100%"
       height="100%" />
    <use
       xlink:href="#gSkqa02mxc31b"
       x="118.31493"
       y="35.966183"
       id="use69"
       width="100%"
       height="100%" />
    <use
       xlink:href="#gSkqa02mxc31b"
       x="-9.6850691"
       y="35.966183"
       id="use71"
       width="100%"
       height="100%" />
    <use
       xlink:href="#gSkqa02mxc31c"
       x="102.22295"
       y="45.125248"
       id="use73"
       width="100%"
       height="100%" />
    <use
       xlink:href="#gSkqa02mxc31c"
       x="-25.777052"
       y="45.125248"
       id="use75"
       width="100%"
       height="100%" />
    <use
       xlink:href="#gSkqa02mxc31b"
       x="73.699615"
       y="8.1849928"
       id="use77"
       width="100%"
       height="100%" />
    <use
       xlink:href="#gSkqa02mxc31b"
       x="73.699615"
       y="136.185"
       id="use79"
       width="100%"
       height="100%" />
    <use
       xlink:href="#gSkqa02mxc31c"
       x="120.63416"
       y="71.324837"
       id="use81"
       width="100%"
       height="100%" />
    <use
       xlink:href="#gSkqa02mxc31c"
       x="-7.3658442"
       y="71.324837"
       id="use83"
       width="100%"
       height="100%" />
    <use
       xlink:href="#gSkqa02mxc31c"
       x="56.059032"
       y="65.925995"
       id="use85"
       width="100%"
       height="100%" />
    <use
       xlink:href="#gSkqa02mxc31c"
       x="55.916088"
       y="24.118166"
       id="use87"
       width="100%"
       height="100%" />
    <use
       xlink:href="#gSkqa02mxc31c"
       x="55.916088"
       y="152.11816"
       id="use89"
       width="100%"
       height="100%" />
    <use
       xlink:href="#gSkqa02mxc31c"
       x="36.353477"
       y="71.906013"
       id="use91"
       width="100%"
       height="100%" />
    <use
       xlink:href="#gSkqa02mxc31b"
       x="15.263264"
       y="27.885715"
       id="use93"
       width="100%"
       height="100%" />
    <use
       xlink:href="#gSkqa02mxc31b"
       x="143.26326"
       y="27.885715"
       id="use95"
       width="100%"
       height="100%" />
    <use
       xlink:href="#gSkqa02mxc31b"
       x="143.26326"
       y="155.88571"
       id="use97"
       width="100%"
       height="100%" />
    <use
       xlink:href="#gSkqa02mxc31b"
       x="15.263264"
       y="155.88571"
       id="use99"
       width="100%"
       height="100%" />
    <use
       xlink:href="#gSkqa02mxc31b"
       x="143.26326"
       y="155.88571"
       id="use101"
       width="100%"
       height="100%" />
    <use
       xlink:href="#gSkqa02mxc31b"
       x="3.7592695"
       y="14.797911"
       id="use103"
       width="100%"
       height="100%" />
    <use
       xlink:href="#gSkqa02mxc31b"
       x="131.75926"
       y="14.797911"
       id="use105"
       width="100%"
       height="100%" />
    <use
       xlink:href="#gSkqa02mxc31b"
       x="131.75926"
       y="142.79791"
       id="use107"
       width="100%"
       height="100%" />
    <use
       xlink:href="#gSkqa02mxc31b"
       x="3.7592695"
       y="142.79791"
       id="use109"
       width="100%"
       height="100%" />
    <use
       xlink:href="#gSkqa02mxc31b"
       x="131.75926"
       y="142.79791"
       id="use111"
       width="100%"
       height="100%" />
    <use
       xlink:href="#gSkqa02mxc31c"
       x="85.990471"
       y="37.774673"
       id="use113"
       width="100%"
       height="100%" />
    <use
       xlink:href="#gSkqa02mxc31c"
       x="109.93166"
       y="59.111557"
       id="use115"
       width="100%"
       height="100%" />
    <use
       xlink:href="#gSkqa02mxc31c"
       x="-18.06834"
       y="59.111557"
       id="use117"
       width="100%"
       height="100%" />
    <use
       xlink:href="#gSkqa02mxc31b"
       x="5.9790177"
       y="80.604034"
       id="use119"
       width="100%"
       height="100%" />
    <use
       xlink:href="#gSkqa02mxc31b"
       x="133.97902"
       y="80.604034"
       id="use121"
       width="100%"
       height="100%" />
    <use
       xlink:href="#gSkqa02mxc31c"
       x="75.792137"
       y="117.03164"
       id="use123"
       width="100%"
       height="100%" />
    <use
       xlink:href="#gSkqa02mxc31c"
       x="75.792137"
       y="-10.968359"
       id="use125"
       width="100%"
       height="100%" />
    <use
       xlink:href="#gSkqa02mxc31b"
       x="96.978714"
       y="92.844917"
       id="use127"
       width="100%"
       height="100%" />
    <use
       xlink:href="#gSkqa02mxc31b"
       x="-31.021288"
       y="92.844917"
       id="use129"
       width="100%"
       height="100%" />
    <use
       xlink:href="#gSkqa02mxc31c"
       x="110.89632"
       y="101.78895"
       id="use131"
       width="100%"
       height="100%" />
    <use
       xlink:href="#gSkqa02mxc31c"
       x="-17.103682"
       y="101.78895"
       id="use133"
       width="100%"
       height="100%" />
    <use
       xlink:href="#gSkqa02mxc31c"
       x="-17.103682"
       y="-26.211054"
       id="use135"
       width="100%"
       height="100%" />
    <use
       xlink:href="#gSkqa02mxc31c"
       x="110.89632"
       y="-26.211054"
       id="use137"
       width="100%"
       height="100%" />
    <use
       xlink:href="#gSkqa02mxc31c"
       x="-17.103682"
       y="-26.211054"
       id="use139"
       width="100%"
       height="100%" />
    <use
       xlink:href="#gSkqa02mxc31c"
       x="9.6407042"
       y="56.578651"
       id="use141"
       width="100%"
       height="100%" />
    <use
       xlink:href="#gSkqa02mxc31c"
       x="137.6407"
       y="56.578651"
       id="use143"
       width="100%"
       height="100%" />
    <use
       xlink:href="#gSkqa02mxc31b"
       x="122.74107"
       y="114.14472"
       id="use145"
       width="100%"
       height="100%" />
    <use
       xlink:href="#gSkqa02mxc31b"
       x="-5.2589245"
       y="114.14472"
       id="use147"
       width="100%"
       height="100%" />
    <use
       xlink:href="#gSkqa02mxc31b"
       x="-5.2589245"
       y="-13.855278"
       id="use149"
       width="100%"
       height="100%" />
    <use
       xlink:href="#gSkqa02mxc31b"
       x="122.74107"
       y="-13.855278"
       id="use151"
       width="100%"
       height="100%" />
    <use
       xlink:href="#gSkqa02mxc31b"
       x="-5.2589245"
       y="-13.855278"
       id="use153"
       width="100%"
       height="100%" />
    <use
       xlink:href="#gSkqa02mxc31c"
       x="25.957588"
       y="12.836043"
       id="use155"
       width="100%"
       height="100%" />
    <use
       xlink:href="#gSkqa02mxc31c"
       x="153.9576"
       y="12.836043"
       id="use157"
       width="100%"
       height="100%" />
    <use
       xlink:href="#gSkqa02mxc31c"
       x="153.9576"
       y="140.83604"
       id="use159"
       width="100%"
       height="100%" />
    <use
       xlink:href="#gSkqa02mxc31c"
       x="25.957588"
       y="140.83604"
       id="use161"
       width="100%"
       height="100%" />
    <use
       xlink:href="#gSkqa02mxc31c"
       x="153.9576"
       y="140.83604"
       id="use163"
       width="100%"
       height="100%" />
    <use
       xlink:href="#gSkqa02mxc31b"
       x="12.187347"
       y="112.02193"
       id="use165"
       width="100%"
       height="100%" />
    <use
       xlink:href="#gSkqa02mxc31b"
       x="140.18735"
       y="112.02193"
       id="use167"
       width="100%"
       height="100%" />
    <use
       xlink:href="#gSkqa02mxc31b"
       x="140.18735"
       y="-15.978071"
       id="use169"
       width="100%"
       height="100%" />
    <use
       xlink:href="#gSkqa02mxc31b"
       x="12.187347"
       y="-15.978071"
       id="use171"
       width="100%"
       height="100%" />
    <use
       xlink:href="#gSkqa02mxc31b"
       x="140.18735"
       y="-15.978071"
       id="use173"
       width="100%"
       height="100%" />
    <use
       xlink:href="#gSkqa02mxc31b"
       x="55.085583"
       y="46.037903"
       id="use175"
       width="100%"
       height="100%" />
    <use
       xlink:href="#gSkqa02mxc31b"
       x="77.739311"
       y="24.503822"
       id="use177"
       width="100%"
       height="100%" />
    <use
       xlink:href="#gSkqa02mxc31b"
       x="77.739311"
       y="152.50381"
       id="use179"
       width="100%"
       height="100%" />
    <use
       xlink:href="#gSkqa02mxc31c"
       x="36.36684"
       y="91.017845"
       id="use181"
       width="100%"
       height="100%" />
    <use
       xlink:href="#gSkqa02mxc31c"
       x="93.27916"
       y="118.849"
       id="use183"
       width="100%"
       height="100%" />
    <use
       xlink:href="#gSkqa02mxc31c"
       x="93.27916"
       y="-9.1510029"
       id="use185"
       width="100%"
       height="100%" />
    <use
       xlink:href="#gSkqa02mxc31b"
       x="67.649345"
       y="78.518509"
       id="use187"
       width="100%"
       height="100%" />
    <use
       xlink:href="#gSkqa02mxc31b"
       x="24.112581"
       y="54.162895"
       id="use189"
       width="100%"
       height="100%" />
    <use
       xlink:href="#gSkqa02mxc31b"
       x="152.11258"
       y="54.162895"
       id="use191"
       width="100%"
       height="100%" />
    <use
       xlink:href="#gSkqa02mxc31b"
       x="100.59992"
       y="9.2718773"
       id="use193"
       width="100%"
       height="100%" />
    <use
       xlink:href="#gSkqa02mxc31b"
       x="-27.40008"
       y="9.2718773"
       id="use195"
       width="100%"
       height="100%" />
    <use
       xlink:href="#gSkqa02mxc31b"
       x="-27.40008"
       y="137.27188"
       id="use197"
       width="100%"
       height="100%" />
    <use
       xlink:href="#gSkqa02mxc31b"
       x="100.59992"
       y="137.27188"
       id="use199"
       width="100%"
       height="100%" />
    <use
       xlink:href="#gSkqa02mxc31b"
       x="-27.40008"
       y="137.27188"
       id="use201"
       width="100%"
       height="100%" />
  </g>
  <desc
     id="desc204">Created with Snap</desc>
</svg>
